<?xml version="1.0" standalone="no"?>
<!DOCTYPE svg PUBLIC "-//W3C//DTD SVG 20010904//EN"
 "http://www.w3.org/TR/2001/REC-SVG-20010904/DTD/svg10.dtd">
<svg version="1.0" xmlns="http://www.w3.org/2000/svg"
 width="1238.000000pt" height="1238.000000pt" viewBox="0 0 1238.000000 1238.000000"
 preserveAspectRatio="xMidYMid meet">
<metadata>
Created by potrace 1.14, written by Peter Selinger 2001-2017
</metadata>
<g transform="translate(0.000000,1238.000000) scale(0.100000,-0.100000)"
fill="#000000" stroke="none">
<path d="M6145 11779 c-549 -41 -1063 -162 -1580 -372 -109 -44 -351 -153
-370 -167 -5 -4 -48 -27 -95 -51 -152 -78 -504 -299 -599 -376 -14 -11 19 -8
129 12 658 122 1649 137 2264 35 809 -135 1588 -471 2166 -934 181 -145 402
-362 549 -537 547 -656 871 -1467 952 -2388 15 -173 6 -719 -15 -891 -46 -388
-129 -783 -217 -1038 -32 -92 -30 -92 89 -12 79 53 133 97 305 251 42 37 211
225 279 309 284 354 492 767 601 1195 213 831 176 1612 -110 2345 -199 511
-522 972 -985 1406 -219 205 -527 429 -823 599 -531 306 -1137 515 -1725 596
-168 24 -614 33 -815 18z"/>
<path d="M4895 10643 c-575 -36 -1062 -145 -1590 -355 -437 -174 -1000 -498
-1350 -776 -144 -115 -451 -420 -556 -552 -496 -624 -799 -1355 -903 -2180
-42 -329 -47 -863 -11 -1185 159 -1432 860 -2672 1915 -3384 152 -103 327
-207 335 -199 3 2 -29 78 -71 168 -428 923 -705 1895 -796 2790 -17 169 -17
729 0 885 47 421 139 755 298 1074 215 434 538 777 984 1045 476 286 967 472
1428 542 135 20 124 24 306 -98 530 -354 929 -788 1085 -1179 60 -150 82 -252
88 -406 7 -163 -5 -253 -47 -384 -88 -269 -298 -548 -485 -646 -123 -64 -217
-87 -360 -87 -180 0 -314 42 -450 138 -68 49 -118 115 -165 219 -109 240 -77
417 98 548 31 24 62 47 67 52 16 15 -203 0 -270 -18 -101 -27 -218 -90 -285
-152 -68 -63 -103 -123 -146 -253 -26 -78 -28 -97 -28 -245 -1 -150 1 -165 28
-247 75 -231 259 -446 475 -557 378 -193 877 -244 1290 -131 340 94 656 308
882 600 230 295 385 673 434 1053 28 216 16 508 -29 722 -7 36 -12 65 -11 65
9 0 111 -149 164 -237 166 -281 266 -553 323 -881 19 -108 22 -165 22 -377 1
-218 -2 -267 -23 -380 -54 -304 -184 -644 -323 -850 -167 -244 -400 -458 -613
-560 -205 -99 -350 -130 -600 -129 -192 1 -280 12 -495 64 -63 16 -116 27
-118 26 -4 -5 218 -106 347 -158 348 -139 694 -227 1018 -259 149 -15 485 -6
610 16 816 140 1421 725 1721 1666 154 479 228 1139 176 1551 -55 440 -180
830 -414 1303 -220 443 -391 694 -648 953 -654 658 -1364 1079 -2147 1272
-373 92 -815 135 -1160 113z"/>
<path d="M7811 3424 c-179 -48 -370 -221 -475 -431 -64 -129 -88 -229 -93
-393 -6 -169 7 -244 62 -355 90 -181 236 -275 429 -275 167 0 296 54 428 179
133 125 224 276 269 446 30 115 37 317 15 419 -35 155 -146 320 -251 373 -104
53 -266 69 -384 37z m241 -271 c58 -31 98 -78 136 -160 25 -54 27 -66 27 -193
-1 -123 -3 -141 -29 -210 -39 -103 -95 -188 -171 -258 -79 -74 -151 -105 -246
-105 -276 0 -386 404 -197 720 68 114 182 207 285 233 58 14 140 3 195 -27z"/>
<path d="M9540 3409 c-154 -13 -343 -15 -536 -5 l-182 8 -31 -100 c-17 -55
-31 -110 -31 -123 l0 -22 160 7 c152 7 160 6 160 -12 0 -84 -67 -511 -131
-842 -22 -113 -41 -230 -42 -260 l-2 -55 123 -3 c120 -3 122 -2 131 20 5 13
27 163 50 333 41 303 71 497 112 721 l21 111 153 -5 154 -5 5 24 c3 13 10 64
17 113 9 73 9 90 -2 97 -8 5 -18 8 -24 7 -5 0 -53 -4 -105 -9z"/>
<path d="M5975 3403 c-38 -2 -74 -8 -78 -12 -5 -5 -22 -98 -38 -207 -50 -342
-85 -539 -155 -851 -36 -166 -64 -309 -61 -318 5 -12 29 -15 141 -15 l135 0
10 38 c5 20 42 228 81 461 39 233 75 433 79 444 8 22 51 -46 396 -638 86 -148
164 -278 173 -287 13 -15 34 -18 139 -18 119 0 124 1 132 23 4 12 32 157 60
322 50 289 90 490 165 830 20 88 36 175 36 193 l0 32 -140 0 c-123 0 -140 -2
-148 -17 -5 -10 -26 -126 -46 -258 -50 -323 -104 -637 -114 -664 -6 -18 -43
39 -218 336 -116 197 -244 415 -285 486 l-73 127 -60 -2 c-34 -1 -92 -4 -131
-5z"/>
<path d="M3196 3392 c-6 -11 -31 -191 -56 -415 -25 -224 -39 -314 -100 -665
-27 -155 -47 -289 -44 -297 5 -13 42 -15 233 -15 126 0 303 -3 394 -7 l167 -6
14 35 c25 60 51 207 38 220 -8 8 -42 7 -124 0 -62 -7 -188 -14 -280 -18 l-168
-6 0 39 c0 21 38 283 84 583 47 299 82 548 80 552 -7 11 -231 10 -238 0z"/>
<path d="M4145 3388 c-2 -7 -20 -143 -40 -303 -19 -159 -50 -378 -67 -485 -41
-254 -45 -423 -10 -488 26 -49 76 -83 158 -109 48 -15 94 -18 254 -18 174 0
203 2 266 22 185 59 253 160 299 443 54 339 70 432 114 664 27 142 47 265 44
272 -4 11 -32 14 -123 14 -66 0 -121 -4 -125 -10 -3 -5 -37 -229 -75 -497 -38
-268 -76 -507 -84 -531 -35 -97 -86 -135 -209 -153 -88 -13 -208 1 -247 29
-38 28 -60 80 -60 142 0 30 36 267 79 525 43 259 76 476 74 483 -4 9 -38 12
-124 12 -87 0 -121 -3 -124 -12z"/>
<path d="M5367 3393 c-8 -13 -25 -142 -52 -383 -31 -276 -34 -293 -95 -615
-65 -344 -69 -366 -63 -382 7 -18 231 -19 238 0 10 26 214 1371 209 1379 -6
10 -231 11 -237 1z"/>
<path d="M9790 3378 c-5 -13 -27 -131 -50 -263 l-42 -240 22 -85 c21 -81 99
-339 196 -648 l45 -143 112 3 112 3 132 210 c165 261 343 554 376 621 20 39
34 104 62 292 21 133 35 249 31 257 -4 12 -27 15 -120 15 -100 0 -117 -2 -124
-17 -5 -10 -22 -119 -37 -243 l-27 -225 -45 -84 c-49 -91 -163 -276 -256 -415
l-60 -89 -29 79 c-51 139 -128 397 -134 449 -4 37 6 106 40 268 25 120 46 231
46 247 l0 30 -120 0 c-116 0 -121 -1 -130 -22z"/>
</g>
</svg>
