<?xml version="1.0" standalone="no"?>
<!DOCTYPE svg PUBLIC "-//W3C//DTD SVG 20010904//EN"
 "http://www.w3.org/TR/2001/REC-SVG-20010904/DTD/svg10.dtd">
<svg version="1.0" xmlns="http://www.w3.org/2000/svg"
 width="1238.000000pt" height="1238.000000pt" viewBox="0 0 1238.000000 1238.000000"
 preserveAspectRatio="xMidYMid meet">
<metadata>
Created by potrace 1.14, written by Peter Selinger 2001-2017
</metadata>
<g transform="translate(0.000000,1238.000000) scale(0.100000,-0.100000)"
fill="#000000" stroke="none">
<path d="M6095 11783 c-505 -42 -1028 -163 -1455 -338 -63 -26 -119 -48 -125
-49 -5 -1 -35 -14 -66 -29 -31 -15 -59 -27 -62 -27 -19 0 -348 -171 -477 -248
-113 -67 -350 -227 -390 -262 l-35 -31 55 5 c30 3 75 10 100 15 113 26 508 71
770 89 226 15 1072 5 1122 -13 7 -2 45 -7 83 -9 78 -5 257 -26 266 -31 3 -2
28 -7 55 -10 59 -8 337 -70 414 -92 30 -8 84 -24 120 -35 36 -11 72 -21 81
-23 30 -6 115 -34 214 -70 55 -20 129 -47 165 -60 182 -66 594 -270 583 -289
-3 -5 -1 -6 5 -2 16 10 259 -144 443 -281 226 -169 414 -347 652 -620 102
-117 268 -352 260 -368 -4 -5 -3 -7 2 -3 7 7 62 -68 81 -112 4 -8 16 -27 26
-42 38 -54 239 -463 236 -478 0 -3 9 -25 22 -50 49 -95 150 -407 204 -630 23
-93 72 -350 75 -390 0 -8 8 -64 16 -125 40 -297 41 -738 1 -1080 -28 -238 -93
-616 -111 -645 -2 -3 -6 -17 -8 -31 -10 -51 -39 -165 -50 -194 -6 -16 -12 -34
-13 -40 -3 -13 -30 -109 -43 -154 -6 -19 -9 -36 -7 -38 1 -2 29 11 62 27 63
33 208 145 319 247 37 34 71 64 74 65 3 2 22 21 40 43 19 22 39 39 43 37 4 -1
7 2 6 6 -2 5 26 40 61 80 35 39 81 95 103 124 22 29 52 67 67 83 15 17 27 32
27 35 0 3 20 34 45 70 177 251 332 571 425 879 36 120 96 377 113 491 17 110
19 131 36 275 27 229 27 631 0 805 -3 22 -10 72 -19 150 -12 93 -74 361 -115
498 -18 57 -28 108 -25 114 4 6 3 8 -3 5 -6 -4 -17 14 -26 41 -69 210 -260
584 -403 789 -24 35 -44 67 -44 73 0 5 -4 10 -9 10 -4 0 -21 19 -37 43 -16 23
-35 48 -42 55 -7 8 -25 30 -39 50 -81 109 -275 318 -433 467 -114 107 -231
205 -339 285 -34 24 -61 48 -61 53 0 4 -4 6 -9 2 -5 -3 -13 0 -17 6 -11 18
-306 209 -425 275 -58 32 -119 66 -135 75 -265 149 -737 334 -1051 413 -226
57 -337 78 -593 113 -152 20 -592 24 -805 6z"/>
<path d="M4810 10639 c-448 -33 -798 -105 -1250 -256 -275 -92 -695 -281 -923
-417 -43 -25 -82 -46 -86 -46 -5 0 -11 -4 -13 -8 -1 -5 -57 -41 -123 -82 -151
-92 -249 -157 -350 -233 -44 -33 -85 -60 -92 -60 -7 0 -11 -3 -10 -7 1 -3 -47
-49 -108 -102 -60 -52 -116 -102 -124 -111 -7 -9 -18 -14 -24 -10 -5 3 -7 1
-4 -4 4 -6 -16 -31 -43 -57 -27 -26 -95 -96 -150 -157 -392 -432 -705 -1012
-877 -1624 -39 -138 -34 -118 -73 -305 -70 -328 -100 -629 -101 -1002 0 -414
40 -792 121 -1143 10 -45 21 -92 23 -106 3 -14 28 -106 57 -205 29 -98 53
-186 53 -194 1 -8 4 -17 8 -20 5 -5 66 -175 71 -200 2 -8 5 -17 8 -20 3 -3 32
-68 64 -145 149 -353 347 -697 573 -999 234 -310 551 -624 852 -840 163 -118
436 -285 447 -274 4 5 -22 64 -103 235 -19 40 -31 78 -27 85 4 6 3 8 -3 5 -6
-4 -17 10 -25 31 -106 259 -175 428 -176 432 -1 6 -16 49 -42 115 -16 42 -29
82 -35 105 -1 3 -6 16 -12 30 -44 106 -197 600 -188 608 3 3 0 10 -5 17 -9 10
-100 358 -114 432 -3 15 -14 73 -26 128 -11 54 -18 105 -16 112 3 7 2 13 -3
13 -7 0 -28 101 -38 190 -2 19 -10 73 -17 120 -39 238 -50 414 -50 750 0 370
11 501 65 777 54 276 131 505 249 738 79 156 175 315 191 315 5 0 9 6 9 13 0
24 133 182 264 312 250 249 572 457 1046 674 291 133 627 229 971 276 56 8 69
2 239 -111 573 -382 982 -851 1115 -1279 44 -140 55 -212 55 -357 0 -277 -93
-516 -304 -779 -105 -131 -232 -215 -393 -261 -102 -29 -284 -30 -388 -4 -156
41 -298 128 -360 221 -79 120 -128 261 -128 370 0 120 65 232 179 311 l57 39
-74 3 c-134 5 -300 -41 -417 -118 -86 -55 -143 -123 -180 -212 -57 -138 -67
-188 -67 -353 0 -138 2 -157 29 -237 75 -231 255 -442 472 -555 292 -152 687
-222 1029 -183 520 60 958 341 1260 809 65 101 176 334 219 461 123 363 149
750 77 1128 -10 50 -17 92 -15 92 4 0 79 -106 127 -180 77 -120 139 -239 131
-251 -4 -7 -3 -9 3 -6 21 13 134 -287 183 -485 54 -219 65 -320 64 -583 0
-200 -4 -260 -22 -360 -38 -212 -78 -349 -157 -535 -89 -208 -186 -370 -296
-491 -22 -24 -54 -61 -72 -82 -39 -46 -202 -187 -217 -187 -5 0 -10 -4 -10 -9
0 -13 -131 -94 -205 -127 -321 -143 -640 -159 -1073 -54 -68 17 -127 30 -130
30 -4 0 38 -22 93 -49 179 -87 509 -211 680 -256 39 -10 72 -21 75 -24 3 -3
12 -7 20 -8 8 -1 80 -15 160 -32 263 -53 475 -71 705 -59 233 11 355 32 550
95 61 20 111 35 112 35 9 -3 260 128 327 170 83 53 246 179 280 217 10 11 24
18 30 14 6 -3 8 -2 3 2 -4 5 26 43 66 84 113 118 143 156 242 306 149 224 246
422 342 699 40 116 117 399 128 466 2 14 13 79 24 145 68 408 81 806 35 1095
-4 29 -26 142 -48 255 -13 63 -53 204 -97 341 -116 359 -314 769 -536 1112
-40 62 -71 118 -67 123 3 5 0 8 -8 7 -7 -2 -12 5 -12 14 1 10 -2 16 -6 13 -5
-3 -31 26 -59 65 -83 114 -412 437 -609 599 -28 23 -49 48 -45 53 3 7 1 8 -5
4 -10 -6 -194 129 -220 162 -7 10 -15 15 -18 13 -3 -1 -40 21 -82 51 -241 169
-607 364 -892 474 -52 20 -106 41 -120 47 -14 5 -31 11 -38 13 -7 1 -57 16
-110 33 -461 143 -995 205 -1472 170z"/>
<path d="M7855 3438 c-27 -4 -59 -11 -70 -16 -11 -6 -42 -20 -70 -32 -27 -12
-69 -36 -93 -52 -60 -42 -177 -162 -223 -230 -58 -85 -125 -237 -145 -328 -13
-61 -16 -341 -4 -385 6 -22 12 -49 14 -60 5 -26 39 -99 70 -152 26 -44 133
-153 150 -153 5 0 17 -6 25 -14 33 -28 116 -45 226 -46 107 -1 124 2 227 41
104 39 236 150 327 273 45 60 118 206 133 264 35 137 39 171 35 312 -3 143 -9
185 -28 222 -5 10 -7 18 -4 18 7 0 -40 92 -73 145 -99 153 -280 224 -497 193z
m127 -262 c109 -34 163 -88 213 -216 22 -55 26 -79 24 -154 -1 -49 -6 -105
-11 -125 -15 -62 -16 -65 -27 -94 -35 -92 -102 -203 -114 -190 -4 3 -7 0 -7
-7 0 -18 -86 -97 -129 -120 -93 -47 -204 -54 -268 -18 -82 46 -131 114 -172
237 -17 52 -13 189 8 273 17 70 76 199 93 206 5 2 8 8 8 13 0 20 99 120 139
141 15 7 28 15 31 18 14 14 52 30 72 30 13 0 30 5 38 10 21 13 47 12 102 -4z"/>
<path d="M9540 3409 c-154 -13 -343 -15 -536 -5 l-182 8 -31 -100 c-17 -55
-31 -110 -31 -123 l0 -22 160 7 c152 7 160 6 160 -12 0 -84 -67 -511 -131
-842 -22 -113 -41 -230 -42 -260 l-2 -55 123 -3 c120 -3 122 -2 131 20 5 13
27 163 50 333 41 303 71 497 112 721 l21 111 153 -5 154 -5 5 24 c3 13 10 64
17 113 9 73 9 90 -2 97 -8 5 -18 8 -24 7 -5 0 -53 -4 -105 -9z"/>
<path d="M3197 3392 c-12 -14 -22 -75 -32 -196 -3 -39 -8 -73 -11 -77 -2 -5
-7 -48 -10 -96 -3 -48 -9 -90 -12 -93 -4 -3 -8 -21 -9 -40 -5 -93 -28 -257
-63 -445 -5 -27 -12 -70 -15 -95 -4 -25 -11 -61 -16 -80 -5 -19 -9 -49 -9 -66
0 -17 -3 -34 -7 -38 -4 -4 -8 -17 -9 -29 -1 -12 -5 -45 -8 -74 -4 -35 -2 -54
6 -59 6 -4 185 -9 397 -10 211 -2 389 -5 396 -7 6 -3 11 3 12 12 0 9 8 42 17
74 9 32 16 71 16 87 0 16 4 31 9 34 4 3 6 17 3 31 -4 25 -6 26 -81 24 -42 -1
-83 -5 -91 -9 -20 -11 -381 -17 -397 -7 -14 9 -10 68 17 237 5 30 12 69 14 85
3 17 7 48 10 70 3 22 7 54 10 70 3 17 8 44 10 60 3 17 7 44 10 60 6 31 11 66
26 175 4 36 13 79 18 97 6 17 8 34 5 37 -3 3 1 29 8 58 7 29 12 61 10 72 -2
13 1 16 11 10 10 -6 11 -5 2 7 -7 8 -8 23 -4 34 4 11 5 26 3 33 -3 6 -1 12 5
12 6 0 7 11 3 28 l-7 27 -113 0 c-83 0 -115 -3 -124 -13z"/>
<path d="M4155 3395 c-13 -10 -25 -60 -31 -120 -5 -63 -14 -131 -20 -160 -3
-16 -6 -39 -6 -50 0 -11 -4 -49 -9 -85 -8 -66 -16 -122 -25 -195 -5 -46 -21
-147 -34 -220 -5 -27 -12 -72 -15 -99 -3 -27 -8 -53 -11 -57 -5 -9 -6 -205 -1
-239 6 -37 47 -111 66 -118 9 -3 28 -13 42 -23 14 -10 37 -20 50 -23 13 -2 31
-7 39 -10 39 -14 107 -19 235 -19 157 0 214 7 287 34 28 10 55 16 59 13 5 -3
9 -1 9 5 0 6 12 17 28 25 33 18 82 60 82 72 0 4 8 17 19 28 20 23 62 126 66
166 2 14 10 63 18 110 9 47 19 103 22 124 3 21 7 48 10 60 2 12 7 44 9 73 3
28 8 57 11 65 3 8 7 29 9 48 2 19 9 60 16 90 6 30 15 78 20 107 4 28 12 58 16
65 5 7 7 21 6 31 -2 10 4 50 13 90 24 100 34 189 24 208 -6 12 -28 15 -120 14
-131 -1 -133 -3 -143 -99 -3 -33 -9 -62 -14 -65 -4 -3 -7 -26 -8 -51 -1 -41
-8 -109 -20 -170 -2 -14 -7 -47 -10 -75 -3 -27 -7 -63 -10 -80 -2 -16 -8 -61
-13 -100 -6 -38 -14 -71 -19 -73 -4 -1 -6 -17 -4 -34 4 -28 -2 -79 -30 -225
-5 -29 -9 -55 -8 -58 2 -12 -31 -65 -41 -65 -6 0 -7 -5 -4 -11 8 -12 -22 -49
-40 -49 -7 0 -27 -8 -46 -17 -47 -24 -131 -32 -218 -22 -93 11 -134 36 -156
93 -18 46 -17 72 5 216 13 87 32 204 45 280 4 19 9 56 12 82 3 29 10 45 16 41
6 -3 7 -1 3 5 -7 11 7 114 40 292 1 8 6 34 9 58 4 28 10 40 18 36 9 -5 9 -4 0
6 -7 8 -8 22 -3 41 7 24 5 29 -13 36 -33 11 -218 10 -232 -2z"/>
<path d="M5364 3380 c-3 -14 -8 -32 -11 -40 -3 -8 -7 -33 -9 -55 -3 -22 -7
-53 -9 -70 -3 -16 -8 -64 -11 -105 -3 -41 -9 -91 -13 -110 -4 -19 -9 -64 -10
-100 -1 -35 -5 -68 -8 -73 -3 -5 -7 -26 -9 -46 -8 -70 -36 -236 -42 -245 -3
-5 -6 -21 -7 -35 -2 -23 -12 -78 -31 -161 -3 -14 -7 -36 -9 -50 -2 -14 -9 -50
-15 -80 -6 -30 -13 -73 -16 -95 -2 -22 -7 -54 -9 -71 -3 -19 0 -35 7 -41 14
-11 222 -12 233 -1 3 3 8 21 11 39 17 124 29 194 34 194 1 0 3 18 4 40 6 81
26 209 33 214 5 3 9 24 9 46 2 39 13 123 34 250 22 139 30 193 36 240 3 28 8
57 11 65 3 8 9 44 13 80 5 36 10 79 13 95 15 83 16 124 4 132 -6 4 -61 8 -120
8 -107 1 -108 1 -113 -25z"/>
<path d="M5895 3390 c-7 -8 -16 -33 -18 -55 -3 -22 -8 -67 -12 -100 -9 -82
-14 -107 -23 -101 -4 2 -8 -21 -8 -52 -1 -52 -13 -149 -29 -242 -8 -42 -11
-63 -19 -115 -7 -41 -16 -83 -35 -165 -17 -75 -63 -282 -72 -327 -5 -24 -13
-62 -18 -85 -6 -24 -14 -62 -19 -85 -14 -66 -10 -68 139 -69 127 0 131 0 142
23 5 12 13 21 16 19 3 -2 6 15 7 37 1 23 7 74 13 112 7 39 17 95 22 125 5 30
14 78 19 105 5 28 12 73 15 100 3 28 9 61 12 75 3 14 8 34 9 45 9 54 25 143
30 170 3 17 8 48 10 70 6 50 11 65 21 65 8 0 44 -51 69 -95 40 -72 57 -102 66
-112 6 -7 7 -13 4 -13 -4 0 -1 -6 6 -14 7 -8 26 -36 41 -63 16 -26 58 -97 94
-158 102 -172 104 -176 97 -186 -3 -5 -1 -8 5 -7 6 2 24 -19 39 -47 15 -27 30
-51 35 -53 4 -2 7 -12 7 -23 0 -10 4 -19 8 -19 10 0 48 -81 44 -93 -1 -5 2 -6
8 -2 5 3 10 2 10 -3 0 -5 11 -20 25 -34 23 -24 30 -25 139 -24 78 1 120 6 128
14 15 15 39 114 38 156 0 15 4 42 9 60 5 17 14 61 20 99 6 37 16 95 22 130 15
93 76 400 98 497 11 47 26 115 34 151 9 36 18 79 21 95 2 16 12 65 20 109 12
67 12 82 1 90 -8 7 -66 11 -140 10 -121 -1 -127 -2 -145 -25 -10 -13 -18 -41
-18 -62 -1 -21 -3 -42 -6 -47 -3 -4 -8 -33 -11 -62 -4 -30 -8 -60 -11 -67 -2
-8 -7 -37 -9 -65 -3 -29 -10 -70 -15 -92 -5 -22 -12 -58 -14 -80 -19 -154 -26
-196 -34 -191 -4 2 -8 -19 -8 -47 -3 -106 -27 -201 -48 -194 -6 2 -16 12 -21
23 -6 10 -34 59 -63 107 -28 49 -52 91 -52 94 0 2 -10 19 -23 36 -12 18 -27
41 -34 52 -56 93 -77 131 -75 138 1 4 -3 7 -9 7 -6 0 -9 5 -7 11 2 7 -4 21
-15 33 -19 22 -41 58 -123 206 -26 47 -52 88 -58 92 -6 4 -8 8 -3 8 6 0 -19
46 -33 60 -3 3 -12 19 -20 35 l-16 30 -133 0 c-105 0 -135 -3 -146 -15z"/>
<path d="M9790 3378 c-5 -13 -27 -131 -50 -263 l-42 -240 22 -85 c21 -81 99
-339 196 -648 l45 -143 112 3 112 3 132 210 c165 261 343 554 376 621 20 39
34 104 62 292 21 133 35 249 31 257 -4 12 -27 15 -120 15 -100 0 -117 -2 -124
-17 -5 -10 -22 -119 -37 -243 l-27 -225 -45 -84 c-49 -91 -163 -276 -256 -415
l-60 -89 -29 79 c-51 139 -128 397 -134 449 -4 37 6 106 40 268 25 120 46 231
46 247 l0 30 -120 0 c-116 0 -121 -1 -130 -22z"/>
</g>
</svg>
